<svg width="18" height="18" viewBox="0 0 18 18" fill="none" xmlns="http://www.w3.org/2000/svg">
<path fill-rule="evenodd" clip-rule="evenodd" d="M17.0859 6.09641V2.50214C17.0859 2.12989 16.7843 1.82812 16.4121 1.82812H12.819C12.2191 1.82812 11.9194 2.5555 12.3426 2.97875L13.345 3.98148L6.50771 10.8206C6.24455 11.0838 6.24455 11.5105 6.50771 11.7738L7.14299 12.4092C7.40614 12.6725 7.83276 12.6725 8.09592 12.4092L14.9331 5.57018L15.9356 6.57302C16.3571 6.99453 17.0859 6.69912 17.0859 6.09641ZM11.8927 9.88239L12.3419 9.43305C12.7664 9.00842 13.4922 9.30914 13.4922 9.90963V14.859C13.4922 15.6035 12.8888 16.207 12.1445 16.207H2.26172C1.51742 16.207 0.914062 15.6035 0.914062 14.859V4.97351C0.914062 4.22901 1.51742 3.62549 2.26172 3.62549H10.5723C11.1726 3.62549 11.4732 4.35148 11.0487 4.77611L10.5995 5.22545C10.4731 5.35184 10.3017 5.42284 10.123 5.42285H2.71094V14.4097H11.6953V10.359C11.6953 10.1802 11.7663 10.0088 11.8927 9.88239Z" fill="black"/>
<mask id="mask0_1_157" style="mask-type:luminance" maskUnits="userSpaceOnUse" x="0" y="1" width="18" height="16">
<path fill-rule="evenodd" clip-rule="evenodd" d="M17.0859 6.09641V2.50214C17.0859 2.12989 16.7843 1.82812 16.4121 1.82812H12.819C12.2191 1.82812 11.9194 2.5555 12.3426 2.97875L13.345 3.98148L6.50771 10.8206C6.24455 11.0838 6.24455 11.5105 6.50771 11.7738L7.14299 12.4092C7.40614 12.6725 7.83276 12.6725 8.09592 12.4092L14.9331 5.57018L15.9356 6.57302C16.3571 6.99453 17.0859 6.69912 17.0859 6.09641ZM11.8927 9.88239L12.3419 9.43305C12.7664 9.00842 13.4922 9.30914 13.4922 9.90963V14.859C13.4922 15.6035 12.8888 16.207 12.1445 16.207H2.26172C1.51742 16.207 0.914062 15.6035 0.914062 14.859V4.97351C0.914062 4.22901 1.51742 3.62549 2.26172 3.62549H10.5723C11.1726 3.62549 11.4732 4.35148 11.0487 4.77611L10.5995 5.22545C10.4731 5.35184 10.3017 5.42284 10.123 5.42285H2.71094V14.4097H11.6953V10.359C11.6953 10.1802 11.7663 10.0088 11.8927 9.88239Z" fill="white"/>
</mask>
<g mask="url(#mask0_1_157)">
<rect width="18" height="18" fill="#BD9FFF"/>
</g>
</svg>
